# xmcd
#
# Track frame offsets:
# 150
# 14797
# 28017
# 45952
# 70165
# 81405
# 98382
# 112477
# 129967
# 154427
# 158142
# 174650
# 189090
# 202840
#
# Disc length: 2825 seconds
#
# Revision: 4
# Processed by: cddbd v1.5.2PL0 Copyright (c) Steve Scherf et al.
# Submitted via: Axialis_AX_CDPlayer 2.6
#
DISCID=b30b070e
DTITLE=Breakout - Najwieksze przeboje - CD1
DYEAR=1900
DGENRE=
TTITLE0=Poszlabym za toba
TTITLE1=Nie ukrywaj, wszystko wiem
TTITLE2=Na drugim brzegu teczy
TTITLE3=Czy mnie jeszcze pamietasz
TTITLE4=Wolanie przez Dunajec
TTITLE5=Masz na to czas
TTITLE6=Gdybys kochal... hej!
TTITLE7=Powiedzielismy juz wszystko
TTITLE8=Gdzie chcesz isc
TTITLE9=Po ten ksiezyc zloty
TTITLE10=Ona poszla inna droga 
TTITLE11=Kiedy bylem malym chlopcem
TTITLE12=Oni zaraz przyjda tu
TTITLE13=Przyszla do mnie bieda
EXTD=
EXTT0=
EXTT1=
EXTT2=
EXTT3=
EXTT4=
EXTT5=
EXTT6=
EXTT7=
EXTT8=
EXTT9=
EXTT10=
EXTT11=
EXTT12=
EXTT13=
PLAYORDER=
